<svg width="1000" height="666.667" xmlns="http://www.w3.org/2000/svg">
 <metadata id="metadata8">image/svg+xml</metadata>

 <g>
  <title>background</title>
  <rect height="402" width="582" y="-1" x="-1" fill="none" id="canvas_background"/>
 </g>
 <g>
  <title>Layer 1</title>
  <g transform="matrix(1.33333, 0, 0, -1.33333, 0, 666.667)" id="g10">
   <g transform="scale(0.1)" id="g12">
    <path d="m7500,0l-7500,0l0,5000l7500,0l0,-5000" fill-rule="nonzero" fill="#fdded4" id="path14"/>
    <path d="m6143.149902,1652.800049c0,1347.570068 -1092.410156,2439.98999 -2439.97998,2439.98999c-1347.569824,0 -2439.98999,-1092.419922 -2439.98999,-2439.98999c0,-157.959961 15.189941,-312.359985 43.869995,-461.959961l4792.240112,0c28.680176,149.599976 43.860352,304 43.860352,461.959961" fill-rule="nonzero" fill="#feebe5" id="path16"/>
    <path d="m1876.109985,4078.929932c0,-253.149902 -205.219971,-458.369873 -458.369995,-458.369873c-253.160034,0 -458.377014,205.219971 -458.377014,458.369873c0,253.150146 205.21698,458.369873 458.377014,458.369873c253.150024,0 458.369995,-205.219727 458.369995,-458.369873" fill-rule="nonzero" fill="#feebe5" id="path18"/>
    <path d="m6704.990234,3289.719971c0,-165.320068 -134.009766,-299.330078 -299.330078,-299.330078c-165.319824,0 -299.330078,134.01001 -299.330078,299.330078c0,165.310059 134.010254,299.330078 299.330078,299.330078c165.320313,0 299.330078,-134.02002 299.330078,-299.330078" fill-rule="nonzero" fill="#feebe5" id="path20"/>
    <path d="m4577.140137,3645.820068l1354.939941,0c0,0 -6.540039,60.870117 -157.089844,109.570068c-150.550293,48.699951 -258.550293,-76.090088 -428.740234,0c-170.189941,76.089844 -260.449707,185.26001 -479.72998,124.389893c-219.27002,-60.869873 -289.379883,-233.959961 -289.379883,-233.959961z" stroke-width="22.1562" stroke-miterlimit="10" stroke="#ffffff" fill="none" id="path22"/>
    <path d="m1397.52002,3153.51001l926.909912,0c0,0 -4.469971,44.77002 -107.469971,80.600098c-102.98999,35.819824 -176.869995,-55.97998 -293.290039,0c-116.429932,55.969971 -178.179932,136.279785 -328.179932,91.5c-150.01001,-44.780029 -197.969971,-172.100098 -197.969971,-172.100098z" stroke-width="17.4774" stroke-miterlimit="10" stroke="#ffffff" fill="none" id="path24"/>
    <path d="m6743.959961,2516.01001c0,-30.199951 -24.149902,-54.689941 -53.939941,-54.689941c-29.790039,0 -53.939941,24.48999 -53.939941,54.689941c0,30.209961 24.149902,54.689941 53.939941,54.689941c29.790039,0 53.939941,-24.47998 53.939941,-54.689941z" stroke-width="19.3326" stroke-miterlimit="10" stroke="#ffffff" fill="none" id="path26"/>
    <path d="m2899.540039,4442.609863c0,-30.209961 -24.149902,-54.700195 -53.939941,-54.700195c-29.780029,0 -53.930176,24.490234 -53.930176,54.700195c0,30.200195 24.150146,54.689941 53.930176,54.689941c29.790039,0 53.939941,-24.489746 53.939941,-54.689941z" stroke-width="19.3326" stroke-miterlimit="10" stroke="#ffffff" fill="none" id="path28"/>
    <path d="m5459.779785,4231.950195c0,-21.930176 -17.540039,-39.720215 -39.169922,-39.720215c-21.649902,0 -39.169922,17.790039 -39.169922,39.720215c0,21.939941 17.52002,39.72998 39.169922,39.72998c21.629883,0 39.169922,-17.790039 39.169922,-39.72998" fill-rule="nonzero" fill="#ffffff" id="path30"/>
    <path d="m731.812988,2508.199951c0,-43.149902 -34.492981,-78.129883 -77.046997,-78.129883c-42.546997,0 -77.046997,34.97998 -77.046997,78.129883c0,43.139893 34.5,78.120117 77.046997,78.120117c42.554016,0 77.046997,-34.980225 77.046997,-78.120117z" stroke-width="19.3326" stroke-miterlimit="10" stroke="#ffffff" fill="none" id="path32"/>
    <path d="m4287.910156,1913.939941c40.47998,186.330078 96.359863,363.26001 200.990234,549.909912c104.75,186.97998 258.639648,382.600098 491.439941,619.26001c0,0 -7.290039,-48.23999 -26.410156,-127.929932c-19.260254,-79.580078 -51.370117,-190.380127 -103.029785,-313.469971c-101.530273,-246.27002 -283.94043,-543.73999 -562.990234,-727.77002" fill-rule="nonzero" fill="#fdded4" id="path34"/>
    <path d="m4207.47998,1798.060059c79.970215,145.800049 46.169922,341.209961 -15.75,514.609863c-62.189941,174.25 -151.290039,327.180176 -176,402.940186c0,0 -60.030029,-177.790039 -70.909912,-379.900146c-9.160156,-201.97998 28.799805,-433.819946 262.659912,-537.649902" fill-rule="nonzero" fill="#fdded4" id="path36"/>
    <path d="m4191.310059,1766.150024c161.290039,149.380005 362.799805,219.829956 558.549805,261.030029c194.620117,41.509888 382.830078,53.170044 504.75,75.660034c0,0 -35.759766,-41.080078 -98.540039,-97.210083c-62.039551,-56.73999 -151.709961,-127.929932 -256.279785,-189.459961c-209.330078,-123.670044 -482.319824,-199.640015 -708.47998,-50.02002" fill-rule="nonzero" fill="#fdded4" id="path38"/>
    <path d="m3948.570068,1447.709961c134.129883,173.070068 73.340088,402.77002 -22.23999,581.209961c-96.130127,179.73999 -225.449951,312.610107 -225.449951,312.610107c0,0 -10.350098,-40.410156 -19.180176,-105.040039c-9.289795,-64.340088 -17.829834,-152.600098 -13.919922,-248.910034c8.120117,-191.640015 61.400146,-417.949951 280.790039,-539.869995" fill-rule="nonzero" fill="#fdded4" id="path40"/>
    <path d="m3957.389893,1459.150024c152.519775,109.98999 362.019775,167.209961 575.440186,174.030029c213.359863,5.890015 432.5,-40.150024 595.779785,-153.790039c0,0 -108.819824,-67.390015 -261.830078,-115.329956c-152.759766,-48.410034 -349.129883,-75.430054 -516.759766,-5.5c-167.990234,70.179932 -265.26001,96.319946 -321.320068,103.48999c-56.199951,7.650024 -71.310059,-2.900024 -71.310059,-2.900024" fill-rule="nonzero" fill="#fdded4" id="path42"/>
    <path d="m3766.790039,1285.189941c0.919922,-5.5 1.379883,-10.790039 1.610107,-15.900024c2.72998,-0.319946 5.459961,-0.709961 8.179932,-1.02002c4.849854,-0.130005 9.679932,-0.349976 14.52002,-0.5c39.419922,102.290039 20.219971,236.859985 -50.660156,356.950073c-87.549805,150.069946 -253.389893,276.910034 -470.299805,309.660034c0,0 15.75,-84.910034 62.059814,-186.369995c46.800049,-101.450073 124.680176,-221.150024 256.410156,-284.73999c127.839844,-61.200073 169.379883,-126.840088 178.179932,-178.080078" fill-rule="nonzero" fill="#fdded4" id="path44"/>
    <path d="m2390.870117,1863.75c-125.120117,97.180054 -238.149902,202.820068 -342.26001,349.280029c-104.319946,146.669922 -198.780029,334.060059 -297.619995,596.530029c0,0 33.449951,-22.719971 86.349976,-65.669922c52.790039,-43.02002 124.530029,-106.960205 198.920044,-190.25c149.470093,-165.26001 310.210083,-410.670166 354.609985,-689.890137" fill-rule="nonzero" fill="#fdded4" id="path46"/>
    <path d="m2450.379883,1760.969971c-81.899902,113.050049 -238.369873,156.52002 -387.790039,170.619995c-150.140015,14.199951 -293.339966,0.199951 -357.839966,8.160034c0,0 112.290039,-109.130005 258.939941,-189.220093c147.130005,-78.72998 332.050171,-131.949951 486.690063,10.440063" fill-rule="nonzero" fill="#fdded4" id="path48"/>
    <path d="m2468.73999,1737.25c-57.629883,176.650024 -43.27002,356.110107 -9.080078,520.77002c33.590088,163.909912 87.26001,312.300049 110.910156,413.73999c0,0 18.699951,-42 39.639893,-110.040039c21.640137,-67.699951 44.870117,-161.709961 55.97998,-263.689941c22.610107,-204.360107 -11.310059,-440.560059 -197.449951,-560.780029" fill-rule="nonzero" fill="#fdded4" id="path50"/>
    <path d="m2625.100098,1438.140015c-84.26001,164.23999 -275.140137,199.199951 -439.459961,189.290039c-165.450073,-9.869995 -307.070068,-61.800049 -307.070068,-61.800049c0,0 26.619995,-22.290039 71.75,-52.01001c44.75,-29.959961 107.540039,-67.839966 180.439941,-99.030029c145.150146,-61.819946 331.040039,-101.319946 494.340088,23.550049" fill-rule="nonzero" fill="#fdded4" id="path52"/>
    <path d="m2619.51001,1448.959961c-31.26001,155.949951 -4.409912,336.839966 61.189941,502.839966c66.280029,165.619995 173.080078,317.240112 311.630127,402.049927c0,0 14.069824,-107.329834 -0.969971,-241.629883c-14.600098,-134.27002 -59.540039,-294.380005 -167.050049,-398.040039c-107.790039,-103.839966 -159.439941,-169.109985 -183.330078,-209.530029c-24.310059,-40.359985 -21.469971,-55.689941 -21.469971,-55.689941" fill-rule="nonzero" fill="#fdded4" id="path54"/>
    <path d="m2729.47998,1230.76001c-49.290039,101.699951 -19.590088,245.310059 65.340088,365.119995c85.579834,119.400024 227.619873,215.22998 410.47998,203.459961c0,0 -17.870117,-77.699951 -66.48999,-162.649902c-48.330078,-85.100098 -126.390137,-175.850098 -240.640137,-207.480103c-110.459961,-30.97998 -152.169922,-81.199951 -166.719971,-122.789917c-14.310059,-41.589966 -1.969971,-75.660034 -1.969971,-75.660034" fill-rule="nonzero" fill="#fdded4" id="path56"/>
    <path d="m2571.649902,1188.290039c5.560059,0.300049 11.360107,0.040039 17.409912,-0.969971c32.98999,-5.460083 68.140137,0.799927 102.040039,2.26001c0.22998,0.27002 0.420166,0.429932 0.650146,0.699951c33.109863,40.329956 -39.910156,17.51001 73.279785,155.300049c57.27002,69.709961 14,307.109985 -186.299805,511.429932c81.699951,-161.319946 46.809814,-382.25 28.76001,-322.319946c-18.700195,62.049927 -17.280029,327.799927 -120.050049,403.369995c-97.630127,71.779907 -228.400146,146.139893 -377.679932,188.899902c152.459961,-183.409912 189.309814,-351.529907 136.289795,-352.159912c-22.98999,-0.26001 -121.869873,356.099854 -286.509888,386.040039c-136.27002,24.780029 -292.540039,29.550049 -469.670044,13.219971c15.069946,-145.109985 24.099976,-280.950073 78.900024,-386.130005c129.799927,-249.150024 527.450073,-223.050049 556.789917,-292.150024c22.469971,-52.930054 -342.269897,-6.160034 -499.859985,127.300049c72.310059,-169.580078 205.97998,-322.970093 303.670044,-391.51001c97.599976,-68.450073 340.840088,52.809937 405.23999,53.75c61.939941,0.909912 42.679932,-56.690063 -124.129883,-95.640015c10.959961,0.659912 -10.820068,-1.390015 0,0c18.72998,3.97998 19.419922,-2.5 38.149902,1.449951c17.820068,3.76001 36.909912,4.72998 49.929932,-1.179932c31.040039,2.799927 62.620117,0.399902 93.76001,-0.27002c16.140137,-0.340088 28.670166,2.189941 44.590088,0c45.800049,7.890015 88.310059,2.199951 134.73999,-1.390015" fill-rule="evenodd" fill="#bfd2d9" id="path58"/>
    <path d="m1680.540039,1991.339966c0,0 393.149902,-225.140015 935.969971,-795.73999" stroke-width="10.4597" stroke-miterlimit="10" stroke="#feebe5" fill="none" id="path60"/>
    <path d="m2009.790039,1915.569946l76.820068,-221.420044" stroke-width="10.4597" stroke-miterlimit="10" stroke="#feebe5" fill="none" id="path62"/>
    <path d="m5816.189941,1704.699951c57.779785,109.599976 67.919922,251.459961 84.410156,402.98999c-184.970215,17.959961 -348.260254,13.780029 -490.75,-11.409912c-172.150391,-30.450195 -277.27002,-402.230103 -301.300293,-401.840088c-55.379883,0.930054 -16.02002,176.369995 144.200195,367.209961c-156.180176,-43.909912 -293.180176,-120.919922 -395.540039,-195.419922c-107.75,-78.420044 -107.629883,-356.050049 -127.470215,-420.790039c-19.169922,-62.52002 -54.489746,168.47998 31.700195,336.589966c-210.319824,-212.439941 -256.72998,-460.219971 -197.259766,-533.349976c117.549805,-144.530029 211.909668,14.690063 246.299805,-27.599976c9.709961,-11.940063 13.120117,-15.98999 0.739746,-32.23999c16.540039,3.859985 22.77002,-0.780029 37.840332,-0.26001c18.859863,0.660034 42.779785,7.469971 58.299805,2.119995c10.089844,0.430054 16.720215,1.849976 26.810059,2.300049c3.859863,0.47998 15.319824,0.149902 18.930176,0c75.449707,3.419922 139.339844,-2.290039 214.899902,-2.869995c12.799805,-0.100098 25.549805,-0.430054 38.310059,-0.75c103.859863,6.309937 207.339844,11.619995 311.330078,3.48999c86.649902,83.179932 180.629883,206.609985 238.239746,339.880005c-165.319824,-138.610107 -546.609863,-185.590088 -522.859863,-130.430054c30.989746,72.060059 446.290039,42.75 583.169922,302.380005" fill-rule="evenodd" fill="#bfd2d9" id="path64"/>
    <path d="m5700.459961,1917.76001c0,0 -302.760254,-131.420044 -872.77002,-724.76001" stroke-width="10.4597" stroke-miterlimit="10" stroke="#feebe5" fill="none" id="path66"/>
    <path d="m5356.100098,1840.290039l-75.990234,-215.619995" stroke-width="10.4597" stroke-miterlimit="10" stroke="#feebe5" fill="none" id="path68"/>
    <path d="m3372.47998,1194.469971c15.149902,54.609985 25.310059,115.959961 27.439941,182.890015c-28.040039,-79.650024 -85.379883,-148.940063 -131.290039,-191.320068c34.680176,2 69.25,7.359985 103.850098,8.430054" fill-rule="evenodd" fill="#69cdca" id="path70"/>
    <path d="m2748.449951,1189.869995c15.340088,-0.219971 30.600098,0.119995 45.820068,0.619995c-20.530029,15.97998 -44.719971,36.040039 -73.180176,61.119995c5.030029,-21.790039 9.660156,-42.25 14.090088,-61.930054c4.449951,0.150024 8.880127,0.25 13.27002,0.190063" fill-rule="evenodd" fill="#69cdca" id="path72"/>
    <path d="m2936.600098,1206.680054c13.929932,1 25.800049,-1.560059 35.800049,-6.420044c30.969971,4.040039 61.949951,4.960083 93.209961,5.300049c14.02002,1.050049 27.959961,1.540039 41.98999,1.609985c23.070068,2.72998 46.080078,6.199951 69.669922,8.119995c27.810059,2.26001 55.650146,1.170044 83.47998,1.300049c-121.719971,350.039917 -468.859863,1186.469971 -1101.069824,1525.189941c0,0 -149.940063,-580.560059 650.949951,-1546.849976c32.860107,2.109985 65.340088,5.880005 98.050049,9.140015c9.25,1.059937 18.550049,1.939941 27.919922,2.609985" fill-rule="nonzero" fill="#f5bdaf" id="path74"/>
    <path d="m2278.399902,2478.189941l753.560059,-1267.609985" stroke-width="10.4597" stroke-miterlimit="10" stroke="#feebe5" fill="none" id="path76"/>
    <path d="m2639.209961,1871.23999l27.439941,287.189941" stroke-width="10.4597" stroke-miterlimit="10" stroke="#feebe5" fill="none" id="path78"/>
    <path d="m2710.060059,1524.849976l172.280029,-62.589966" stroke-width="10.4597" stroke-miterlimit="10" stroke="#feebe5" fill="none" id="path80"/>
    <path d="m4026.060059,1251.150024c46.669922,-7.119995 96.209961,-13.650024 142.669922,-21.650024c17.200195,-2.969971 31.870117,-2.559937 50.620117,-7.679932c16.859863,1.319946 28.509766,-9.330078 43.410156,-11.070068c2.589844,-0.299927 5.009766,-0.75 7.489746,-1.150024c882.720215,960.430054 751.430176,1565.180054 751.430176,1565.180054c-899.390137,-481.050049 -957.240234,-1017.789917 -1130.390137,-1500.880005c33.110107,-6.319946 66.169922,-12.929932 99.469971,-18.209961c11.47998,-1.809937 27.340088,0.76001 35.300049,-4.540039" fill-rule="nonzero" fill="#f5bdaf" id="path82"/>
    <path d="m4892.779785,2516.01001l-824.259766,-1271.119995" stroke-width="10.4597" stroke-miterlimit="10" stroke="#feebe5" fill="none" id="path84"/>
    <path d="m4508.600098,1923.569946l-15.830078,280.859985" stroke-width="10.4597" stroke-miterlimit="10" stroke="#feebe5" fill="none" id="path86"/>
    <path d="m4424.330078,1580.209961l-174.589844,-55.839966" stroke-width="10.4597" stroke-miterlimit="10" stroke="#feebe5" fill="none" id="path88"/>
    <path d="m1696.76001,1187.300049c0,0 -472.689941,325.869995 -414.869995,982.23999" stroke-width="20.6217" stroke-miterlimit="10" stroke="#e6ae9d" fill="none" id="path90"/>
    <path d="m1377.5,2215.98999c3.540039,-48.909912 -33.23999,-91.429932 -82.150024,-94.959961c-48.910034,-3.540039 -91.419922,33.23999 -94.959961,82.149902c-3.540039,48.910156 33.23999,91.420166 82.150024,94.959961c48.909912,3.540039 91.419922,-33.25 94.959961,-82.149902" fill-rule="nonzero" fill="#bfd2d9" id="path92"/>
    <path d="m1350.52002,2333.659912c2.02002,-28.040039 -19.060059,-52.409912 -47.099976,-54.429932c-28.030029,-2.030029 -52.400024,19.050049 -54.430054,47.089844c-2.030029,28.040039 19.060059,52.410156 47.090088,54.430176c28.039917,2.030029 52.409912,-19.050049 54.439941,-47.090088" fill-rule="nonzero" fill="#bfd2d9" id="path94"/>
    <path d="m1685.410034,1199c0.469971,-0.219971 -492,-50.98999 -698.676025,429.390015" stroke-width="20.6217" stroke-miterlimit="10" stroke="#e6ae9d" fill="none" id="path96"/>
    <path d="m1036.060059,1696.790039c20.859985,-32.839966 11.150024,-76.369995 -21.679993,-97.22998c-32.841003,-20.859985 -76.372009,-11.150024 -97.231995,21.679932c-20.859009,32.840088 -11.152039,76.369995 21.68396,97.230103c32.840027,20.859985 76.368042,11.149902 97.228027,-21.680054" fill-rule="nonzero" fill="#bfd2d9" id="path98"/>
    <path d="m972.960999,1768.839966c11.957031,-18.819946 6.393982,-43.77002 -12.429993,-55.72998c-18.820007,-11.959961 -43.776978,-6.400024 -55.734009,12.429932c-11.960999,18.820068 -6.39502,43.780029 12.429993,55.730103c18.824036,11.959961 43.77301,6.399902 55.734009,-12.430054" fill-rule="nonzero" fill="#bfd2d9" id="path100"/>
    <path d="m5672.709961,1187.300049c0,0 472.649902,325.869995 414.830078,982.23999" stroke-width="20.6217" stroke-miterlimit="10" stroke="#e6ae9d" fill="none" id="path102"/>
    <path d="m5991.930176,2215.98999c-3.529785,-48.909912 33.25,-91.429932 82.149902,-94.959961c48.919922,-3.540039 91.430176,33.23999 94.959961,82.149902c3.540039,48.910156 -33.239746,91.420166 -82.149902,94.959961c-48.910156,3.540039 -91.419922,-33.25 -94.959961,-82.149902" fill-rule="nonzero" fill="#bfd2d9" id="path104"/>
    <path d="m6018.919922,2333.659912c-2.029785,-28.040039 19.060059,-52.409912 47.100098,-54.429932c28.029785,-2.030029 52.399902,19.050049 54.429688,47.089844c2.02002,28.040039 -19.05957,52.410156 -47.099609,54.430176c-28.040039,2.030029 -52.400391,-19.050049 -54.430176,-47.090088" fill-rule="nonzero" fill="#bfd2d9" id="path106"/>
    <path d="m5684.02002,1199c-0.47998,-0.219971 492,-50.98999 698.689941,429.390015" stroke-width="20.6217" stroke-miterlimit="10" stroke="#e6ae9d" fill="none" id="path108"/>
    <path d="m6333.379883,1696.790039c-20.859863,-32.839966 -11.149902,-76.369995 21.680176,-97.22998c32.839844,-20.859985 76.369629,-11.150024 97.22998,21.679932c20.849609,32.840088 11.149902,76.369995 -21.680176,97.230103c-32.850098,20.859985 -76.370117,11.149902 -97.22998,-21.680054" fill-rule="nonzero" fill="#bfd2d9" id="path110"/>
    <path d="m6396.470215,1768.839966c-11.959961,-18.819946 -6.390137,-43.77002 12.439941,-55.72998c18.810059,-11.959961 43.77002,-6.400024 55.72998,12.429932c11.950195,18.820068 6.399902,43.780029 -12.429688,55.730103c-18.820313,11.959961 -43.780273,6.399902 -55.740234,-12.430054" fill-rule="nonzero" fill="#bfd2d9" id="path112"/>
    <path d="m726.401978,1187.300049l5943.618042,0" stroke-width="19.0574" stroke-miterlimit="10" stroke="#e6ae9d" fill="none" id="path114"/>
    <path d="m2086.820068,1021.400024l-862.560059,-383.470032l4907.299561,0l-838.82959,383.469971l-3205.909912,0.000061z" stroke-width="19.0574" stroke-miterlimit="10" stroke="#e6ae9d" fill="none" id="path116"/>
    <path d="m3376.199951,1778.890015l-169.389893,-275.339966l324.939941,-385.890015l327.719971,0l305.599854,392.429932l-189.179932,268.800049l-599.689941,0" fill-rule="nonzero" fill="#9797d3" id="path118"/>
    <path d="m3206.810059,1503.550049c0,0 -728.860107,-56.310059 -911.679932,-247.26001c-182.820068,-190.949951 -77.430176,-317.359985 81.26001,-398.148987c223.439941,-113.75 883.139893,-89.378967 1300.839844,48.75l68.290039,398.148987l-538.709961,198.51001" fill-rule="nonzero" fill="#9797d3" id="path120"/>
    <path d="m4146.189941,1513.079956c0,0 763.239746,-65.839966 946.069824,-256.790039c182.820313,-190.949951 77.430176,-317.359985 -81.25,-398.148987c-223.459961,-113.75 -1028.679932,-94.890991 -1446.369873,43.25l77.22998,403.648987l504.320068,208.040039" fill-rule="nonzero" fill="#9797d3" id="path122"/>
    <path d="m4317.220215,1187.310059l-164.089844,19.52002l-25.040039,64.699951l64.27002,28.550049c0,0 -8.850098,91.469971 69.77002,106.679932c78.609863,15.200073 172.439941,-48.209961 263.759766,-7.299927c84.280273,37.76001 187.359863,72.439941 283.530273,20.23999c14.199707,-7.709961 20.879883,-24.640015 16.029785,-40.050049l-0.359863,-1.159912c-4.890137,-15.530029 -20.100098,-25.119995 -36.290039,-23.460083c-33.939941,3.48999 -94.47998,2.73999 -154.200195,-33.51001c-60.52002,-36.719971 -206.889648,-93.559937 -317.379883,-134.209961l0,0" fill-rule="nonzero" fill="#f89a89" id="path124"/>
    <path d="m3796.399902,1230.76001l322.160156,31.680054" stroke-width="12.9514" stroke-miterlimit="10" stroke-linecap="round" stroke="#45243a" fill="none" id="path126"/>
    <path d="m3611.810059,886.789001c-256.840088,59.301025 -525.560059,211.430969 -525.560059,211.430969l16.01001,27.190063" stroke-width="12.9514" stroke-miterlimit="10" stroke-linecap="round" stroke="#45243a" fill="none" id="path128"/>
    <path d="m3197.860107,1235.060059c0,0 1188.550049,36.630005 1493.349854,-155.550049" stroke-width="12.9514" stroke-miterlimit="10" stroke-linecap="round" stroke="#45243a" fill="none" id="path130"/>
    <path d="m2619.26001,1158.680054c0,0 215.280029,100.849976 362.360107,34.790039" stroke-width="12.9514" stroke-miterlimit="10" stroke-linecap="round" stroke="#45243a" fill="none" id="path132"/>
    <path d="m3119.169922,1117.880005l78.689941,119.790039l-78.689941,42.579956c0,0 15.969971,90.51001 -61.22998,111.800049c-77.189941,21.299927 -175.679932,-34.600098 -263.52002,13.309937c-81.080078,44.22998 -181.139893,86.849976 -281.100098,42.310059c-14.76001,-6.580078 -22.72998,-22.930054 -19.099854,-38.680054l0.280029,-1.189941c3.649902,-15.859985 18.069824,-26.600098 34.339844,-26.210083c34.100098,0.820068 94.410156,-4.640015 151.120117,-45.439941c97.830078,-70.390015 439.209961,-218.27002 439.209961,-218.27002" fill-rule="nonzero" fill="#f89a89" id="path134"/>
    <path d="m3386.530029,1370.48999l179.77002,-130.199951" stroke-width="12.9514" stroke-miterlimit="10" stroke-linecap="round" stroke="#45243a" fill="none" id="path136"/>
    <path d="m4155.140137,2984.820068c-121.590088,196.310059 -142.030029,519.099854 -142.030029,519.099854l-298.909912,123.360107l0,10.159912l-18.070068,-5.079834l-18.060059,5.079834l0,-10.159912l-296.679932,-120.419922c0,0 -32.280029,-335.580078 -153.869873,-531.880127c-120.150146,-194 -33.920166,-436.329834 468.609863,-400.619873c502.530029,-35.709961 579.159912,216.459961 459.01001,410.459961" fill-rule="nonzero" fill="#e93f3a" id="path138"/>
    <path d="m3862.98999,2835.330078l289.289795,-92.649902c54.090332,-19.830078 67.890137,-79.870117 53.72998,-135.720215l-230.119873,-828.069946l-599.689941,0l-207.929932,845.499878c-8.689941,38.820068 10.329834,95.52002 47.290039,110.230225l312.899902,115.039795l334.530029,-14.329834" fill-rule="nonzero" fill="#ea3b64" id="path140"/>
    <path d="m4076.5,2405.909912l302.410156,-676.369995c23.790039,-65.800049 92.599609,-103.839966 160.97998,-88.959961l0,0c82.089844,17.849976 129.969727,103.549927 102.040039,182.779907c-59.459961,168.690063 -238.52002,509.939941 -299.840332,678.820068c-29.839844,82.209961 -126.459961,117.780029 -202.52002,74.580078l0,0c-59.829834,-33.98999 -86.459717,-106.140137 -63.069824,-170.850098" fill-rule="nonzero" fill="#f89a89" id="path142"/>
    <path d="m4162.799805,2734.620117c0,0 98.950195,-8.909912 221.600098,-332.77002l-287.109863,-149.100098l-93.420166,277.830078l158.929932,204.040039" fill-rule="nonzero" fill="#ea3b64" id="path144"/>
    <path d="m4117.040039,2269.189941l40.450195,183.780029" stroke-width="12.9514" stroke-miterlimit="10" stroke-linecap="round" stroke="#45243a" fill="none" id="path146"/>
    <path d="m4451.509766,1957.5c-8.200195,2.72998 -3.569824,-14.819946 -728.340088,292.080078l-31.079834,-41.620117c-1.51001,-43.090088 8.369873,-84.459961 35.109863,-102.02002l716.180176,-451.5l8.129883,303.060059" fill-rule="nonzero" fill="#f89a89" id="path148"/>
    <path d="m3692.090088,2207.959961l-4.300049,353.340088c-0.089844,7.959961 6.330078,14.459961 14.290039,14.459961l0,0c7.050049,0 13.040039,-5.130127 14.130127,-12.080078l95.789795,-418.48999l-119.909912,62.77002" fill-rule="nonzero" fill="#f89a89" id="path150"/>
    <path d="m4242.850098,2033.829956l141.669922,-54.98999" stroke-width="9.52872" stroke-miterlimit="10" stroke="#e98071" fill="none" id="path152"/>
    <path d="m3301.870117,2405.909912l-302.409912,-676.369995c-23.790039,-65.800049 -92.610107,-103.839966 -160.97998,-88.959961l0,0c-82.090088,17.849976 -129.970215,103.549927 -102.040039,182.779907c59.449951,168.690063 238.52002,509.939941 299.829834,678.820068c29.850098,82.209961 126.469971,117.780029 202.52002,74.580078l0,0c59.840088,-33.98999 86.469971,-106.140137 63.080078,-170.850098" fill-rule="nonzero" fill="#f89a89" id="path154"/>
    <path d="m3215.560059,2734.620117c0,0 -98.939941,-8.909912 -221.600098,-332.77002l287.120117,-149.100098l93.419922,277.830078l-158.939941,204.040039" fill-rule="nonzero" fill="#ea3b64" id="path156"/>
    <path d="m3252.699951,2269.189941l-40.459961,183.780029" stroke-width="12.9514" stroke-miterlimit="10" stroke-linecap="round" stroke="#45243a" fill="none" id="path158"/>
    <path d="m2926.860107,1957.5c8.199951,2.72998 3.560059,-14.819946 728.340088,292.080078l31.079834,-41.620117c2.97998,-48.810059 -11.619873,-86.51001 -38.359863,-104.060059l-712.929932,-449.459961l-8.130127,303.060059" fill-rule="nonzero" fill="#f89a89" id="path160"/>
    <path d="m3686.280029,2207.959961l4.300049,353.340088c0.089844,7.959961 -6.330078,14.459961 -14.300049,14.459961l0,0c-7.040039,0 -13.030029,-5.130127 -14.120117,-12.080078l-95.789795,-418.48999l119.909912,62.77002" fill-rule="nonzero" fill="#f89a89" id="path162"/>
    <path d="m3688.870117,2566.919922l3.27002,-376.820068" stroke-width="9.52872" stroke-miterlimit="10" stroke="#e98071" fill="none" id="path164"/>
    <path d="m3135.51001,2033.829956l-135.199951,-54.98999" stroke-width="9.52872" stroke-miterlimit="10" stroke="#e98071" fill="none" id="path166"/>
    <path d="m3579.580078,2878.669922l-222.330078,-90.120117c0,0 142.580078,-82.299805 323.370117,-82.849854c202.219971,-0.610107 346.560059,78.090088 346.560059,78.090088l-232.02002,104.409912l-215.580078,-9.530029" fill-rule="nonzero" fill="#f89a89" id="path168"/>
    <path d="m3795.629883,3099.280029c0,0 -34.340088,-1.189941 -82.26001,-10.100098c-47.909912,-8.899902 -87.030029,16.27002 -96.669922,-16.159912c-0.190186,-0.649902 -39.120117,32.429932 -39.120117,32.429932l-20.02002,-319.209961c0,0 127.27002,-77.609863 265.700195,4.01001l-27.630127,309.030029" fill-rule="nonzero" fill="#f89a89" id="path170"/>
    <path d="m3547.25,3140.800049c0,0 57.840088,-143.340088 258.379883,-153.330078l-16.789795,191.280029l-241.590088,-37.949951" fill-rule="nonzero" fill="#46253b" id="path172"/>
    <path d="m4014.73999,3502.189941c0,-182.709961 -142.179932,-330.820068 -317.570068,-330.820068c-175.389893,0 -317.569824,148.110107 -317.569824,330.820068c0,182.709961 142.179932,307 317.569824,307c175.390137,0 317.570068,-124.290039 317.570068,-307" fill-rule="nonzero" fill="#e93f3a" id="path174"/>
    <path d="m3946.290039,3495.840088c0,-103.929932 -15.040039,-193.620117 -30.060059,-257.280029c-14.709961,-62.310059 -56.069824,-105.859863 -114.550049,-140.919922l-10.649902,-6.390137c-61.860107,-37.079834 -141.800049,-37.949951 -204.610107,-2.209961l0,0c-63.359863,36.050049 -107.719971,83.580078 -121.369873,150.449951c-24.830078,121.640137 -27.540039,256.350098 -27.540039,256.350098c0,0 -23.619873,262.370117 250.77002,257.27002c274.380127,-5.100098 258.01001,-257.27002 258.01001,-257.27002" fill-rule="nonzero" fill="#f89a89" id="path176"/>
    <path d="m3467.429932,3234.350098c-46.290039,-44.72998 -161.649902,86.719971 -118.860107,139.189941c39.440186,48.360107 95.470215,-6.829834 95.470215,-6.829834l9.5,-49.320068l14.129883,-66.390137l3.639893,-14.889893l-3.879883,-1.76001" fill-rule="nonzero" fill="#f89a89" id="path178"/>
    <path d="m3916.100098,3237.600098c49.060059,-38.629883 167.959961,104.409912 120.389893,145.72998c-47.569824,41.320068 -99.399902,-13.01001 -99.399902,-13.01001l-8.600098,-49.469971l-12.919922,-66.610107l-3.379883,-14.939941l3.909912,-1.699951" fill-rule="nonzero" fill="#f89a89" id="path180"/>
    <path d="m3390.379883,3411.919922l58.389893,-73.899902l-11.769775,180.109863l-46.620117,-106.209961z" fill-rule="nonzero" fill="#e93f3a" id="path182"/>
    <path d="m3986.790039,3411.919922l-52.830078,-72.169922l12.090088,178.379883l40.73999,-106.209961z" fill-rule="nonzero" fill="#e93f3a" id="path184"/>
    <path d="m3695.909912,3346.72998l4.340088,-33.26001l-14.900146,-9.340088" stroke-width="15.5417" stroke-miterlimit="10" stroke-linecap="round" stroke="#45243a" fill="none" id="path186"/>
    <path d="m3607.860107,3237.389893l160.820068,0c0,0 -18.090088,-26.370117 -80.410156,-26.370117c-67.22998,0 -80.409912,26.370117 -80.409912,26.370117" fill-rule="nonzero" fill="#ea3b63" id="path188"/>
    <path d="m3607.860107,3237.389893l36.73999,19c7.090088,3.669922 17.409912,4.100098 25.300049,1.070068l19.389893,-7.469971l17.350098,6.939941c7.869873,3.149902 18.320068,2.790039 25.51001,-0.890137l36.530029,-18.649902l-160.820068,0" fill-rule="nonzero" fill="#ea3b63" id="path190"/>
    <path d="m3607.860107,3398.449951c0,0 -30.459961,-26.02002 -68.639893,0" stroke-width="15.5417" stroke-miterlimit="10" stroke-linecap="round" stroke="#45243a" fill="none" id="path192"/>
    <path d="m3832.790039,3398.449951c0,0 -30.459961,-26.02002 -68.639893,0" stroke-width="15.5417" stroke-miterlimit="10" stroke-linecap="round" stroke="#45243a" fill="none" id="path194"/>
    <path d="m3739.169922,3479c0,0 81.780029,-4.23999 136.290039,-37.370117c0,0 0,34.340088 -51.919922,49.490234c-51.920166,15.149902 -84.370117,-12.120117 -84.370117,-12.120117" fill-rule="nonzero" fill="#46253b" id="path196"/>
    <path d="m3634.449951,3479c0,0 -81.77002,-4.23999 -136.290039,-37.370117c0,0 0,34.340088 51.920166,49.490234c51.919922,15.149902 84.369873,-12.120117 84.369873,-12.120117" fill-rule="nonzero" fill="#46253b" id="path198"/>
    <path d="m3467.379883,3700.429932c0,0 95.48999,-193.449951 508.02002,-203.060059c0,0 44.580078,183.080078 -166.860107,255.810059c-211.439941,72.72998 -341.159912,-52.75 -341.159912,-52.75" fill-rule="nonzero" fill="#e93f3a" id="path200"/>
    <path d="m3408.72998,3465.159912c0,0 127.310059,37.379883 143.77002,247.77002c0,0 -128.969971,-19.639893 -143.77002,-247.77002" fill-rule="nonzero" fill="#e93f3a" id="path202"/>
    <path d="m3443.590088,3296.080078c0,0 -6.459961,35.090088 -54.97998,34.120117" stroke-width="12.9514" stroke-miterlimit="10" stroke-linecap="round" stroke="#45243a" fill="none" id="path204"/>
    <path d="m3936.290039,3296.080078c0,0 6.449951,35.090088 54.97998,34.120117" stroke-width="12.9514" stroke-miterlimit="10" stroke-linecap="round" stroke="#45243a" fill="none" id="path206"/>
    <path d="m3850.840088,345.289001c-4.330078,-4.429993 -8.040039,-9.296997 -11.080078,-14.527008l-4.649902,2.410004c-0.679932,2.968994 -3.5,5.019012 -6.590088,4.660004c-3.319824,-0.390991 -5.689941,-3.390991 -5.300049,-6.703003c0.390137,-3.30899 3.390137,-5.667999 6.700195,-5.277008c0.659912,0.078003 1.27002,0.25 1.839844,0.519012l4.51001,-2.351013c-2.51001,-5.527985 -4.329834,-11.378998 -5.389893,-17.429993l7.469971,-1.320007c2.290039,13.062012 8.5,25.070007 17.909912,34.730011l-5.419922,5.289001" fill-rule="nonzero" fill="#1c191c" id="path208"/>
    <path d="m3905.709961,368.30899c-1.709961,0 -3.409912,-0.05899 -5.100098,-0.167999l-0.72998,6.256989c1.880127,1.5 2.959961,3.891022 2.660156,6.45401c-0.459961,3.928986 -4.02002,6.738007 -7.950195,6.277008c-3.939941,-0.457001 -6.75,-4.02002 -6.279785,-7.949005c0.289795,-2.550995 1.889893,-4.621002 4.039795,-5.640991l0.73999,-6.238007c-7.139893,-1.171997 -14.029785,-3.332001 -20.599854,-6.460999l3.27002,-6.85202c9.339844,4.481018 19.419922,6.742004 29.949951,6.742004c4.969971,0 9.929932,-0.518982 14.76001,-1.582001l1.600098,7.411011c-5.350098,1.160004 -10.850098,1.75 -16.360107,1.75" fill-rule="nonzero" fill="#1c191c" id="path210"/>
    <path d="m3971.73999,342.839996c3.310059,0.402008 5.659912,3.410004 5.25,6.718994c-0.399902,3.312012 -3.409912,5.660004 -6.719971,5.25c-3.090088,-0.378998 -5.350098,-3.027985 -5.300049,-6.078979l-4.159912,-3.628021c-4.180176,4.296021 -8.900146,8.117004 -14.070068,11.386017l-4.040039,-6.406006c11.330078,-7.152008 20.199951,-17.27301 25.630127,-29.25l6.899902,3.128998c-2.51001,5.531006 -5.669922,10.710999 -9.419922,15.437012l4.02002,3.511993c0.619873,-0.121002 1.25,-0.160004 1.909912,-0.070007" fill-rule="nonzero" fill="#1c191c" id="path212"/>
    <path d="m3900.23999,266.230011c-3.860107,-0.230011 -7.75,-0.351013 -11.570068,-0.351013c-8.809814,0 -17.329834,0.601013 -24.780029,1.801025c-3.909912,0.608978 -8.459961,1.539001 -12.709961,2.921997c10.469971,-18.622009 30.689941,-31.250015 53.890137,-31.250015c28.549805,0 52.619873,19.160019 59.48999,45.026993c-6.820068,-4.5 -15.060059,-8.257996 -24.580078,-11.230988c-11.800049,-3.678986 -25.550049,-6.06601 -39.73999,-6.917999" fill-rule="nonzero" fill="#1c191c" id="path214"/>
    <path d="m3931.48999,297.082001c-7.5,0 -13.600098,6.097992 -13.600098,13.597992c0,7.5 6.100098,13.609009 13.600098,13.609009c7.5,0 13.610107,-6.109009 13.610107,-13.609009c0,-7.5 -6.110107,-13.597992 -13.610107,-13.597992zm-47.369873,-9.082001c-10.189941,0 -18.5,8.300995 -18.5,18.488007c0,10.210999 8.310059,18.511993 18.5,18.511993c10.199951,0 18.5,-8.300995 18.5,-18.511993c0,-10.187012 -8.300049,-18.488007 -18.5,-18.488007zm68.959961,74.230011c-33.51001,0 -60.790039,-26.667999 -60.790039,-59.437012c0,-4.25 0.459961,-8.492004 1.369873,-12.609009c6.73999,-4.820984 27.060059,-8.902985 53.47998,-7.312988c28.790039,1.742004 52.960205,9.582001 66.710205,21.589996c-0.040039,1.94101 -0.200195,3.902008 -0.450195,5.812012c-3.789795,29.617981 -29.72998,51.957001 -60.319824,51.957001" fill-rule="nonzero" fill="#1c191c" id="path216"/>
    <path d="m4065.75,334.480011c-2.949951,1.161011 -8.050049,3.089996 -13.830078,2.378998c-5.5,-0.699005 -8.429932,-3.410004 -8.429932,-10.070007l0,-8.660004l22.280029,0l0,-17.167999l-22.280029,0l0,-54.550995l-19.320068,0l0,54.550995l-13.399902,0l0,17.167999l13.399902,0l0,8.882996c0,16.796997 8.950195,27.820007 25.680176,27.820007c6.429932,0 11.579834,-1.210999 15.899902,-3.070007l0,-17.281982" fill-rule="nonzero" fill="#1c191c" id="path218"/>
    <path d="m4112.77002,301.160004c-1.759766,0.300995 -3.569824,0.460999 -5.259766,0.460999c-8.960449,0 -15.100342,-5.480011 -15.100342,-16.128998l0,-39.082001l-19.309814,0l0,71.718994l18.72998,0l0,-7.847992c4.509766,6.731018 11.390137,9.769989 20.199707,9.769989c4.140137,0 8.480469,-1.269989 10.94043,-3.370972l-10.200195,-15.52002" fill-rule="nonzero" fill="#1c191c" id="path220"/>
    <path d="m4138.299805,289.031006l31.759766,0c-1.779785,9.179993 -7.339844,14.367004 -15.619629,14.367004c-9.110352,0 -14.430176,-5.476013 -16.140137,-14.367004zm51.149902,-6.660004c0,-2.210999 -0.149902,-4.882996 -0.370117,-6.511993l-50.849609,0c2.069824,-10.359009 9.32959,-14.867004 18.429688,-14.867004c6.220215,0 12.950195,2.52002 18.130371,6.878998l11.319824,-12.429993c-8.129883,-7.479996 -18.490234,-10.889999 -30.560059,-10.889999c-21.990234,0 -37.22998,14.961014 -37.22998,37.530991c0,22.578003 14.799805,37.968994 36.27002,37.968994c20.640137,0 34.779785,-15.320984 34.859863,-37.679993" fill-rule="nonzero" fill="#1c191c" id="path222"/>
    <path d="m4214.830078,289.031006l31.759766,0c-1.779785,9.179993 -7.32959,14.367004 -15.609863,14.367004c-9.120117,0 -14.439941,-5.476013 -16.149902,-14.367004zm51.160156,-6.660004c0,-2.210999 -0.160156,-4.882996 -0.380371,-6.511993l-50.839844,0c2.069824,-10.359009 9.319824,-14.867004 18.419922,-14.867004c6.220215,0 12.950195,2.52002 18.140137,6.878998l11.319824,-12.429993c-8.139648,-7.479996 -18.5,-10.889999 -30.569824,-10.889999c-21.97998,0 -37.22998,14.961014 -37.22998,37.530991c0,22.578003 14.810059,37.968994 36.27002,37.968994c20.649902,0 34.790039,-15.320984 34.870117,-37.679993" fill-rule="nonzero" fill="#1c191c" id="path224"/>
    <path d="m4292.669922,282.300995c0,-11.321014 7.47998,-19.761993 18.419922,-19.761993c11.410156,0 18.510254,8.812988 18.510254,19.761993c0,10.949005 -7.100098,19.757996 -18.510254,19.757996c-10.939941,0 -18.419922,-8.437988 -18.419922,-19.757996zm56.759766,0c0,-21.539001 -14.949707,-37.75 -34.699707,-37.75c-9.620117,0 -16.439941,3.780991 -21.100098,9.327988l0,-37.077988l-19.25,0l0,101.328003l18.879883,0l0,-7.917999c4.660156,5.839996 11.540039,9.839996 21.390137,9.839996c19.830078,0 34.779785,-16.210999 34.779785,-37.75" fill-rule="nonzero" fill="#1c191c" id="path226"/>
    <path d="m4377.879883,246.410004l-19.319824,0l0,71.718994l19.319824,0l0,-71.718994zm2.589844,95.179993c0,-6.960999 -5.399902,-12.281006 -12.359863,-12.281006c-6.959961,0 -12.279785,5.320007 -12.279785,12.281006c0,6.960999 5.319824,12.429993 12.279785,12.429993c6.959961,0 12.359863,-5.468994 12.359863,-12.429993" fill-rule="nonzero" fill="#1c191c" id="path228"/>
    <path d="m4410.120117,292.589996l27.02002,25.539001l23.680176,0l-34.790039,-33.75l35.009766,-37.969009l-23.759766,0l-27.160156,29.012009l0,-29.011993l-19.319824,0l0,106.582001l19.319824,0l0,-60.402008" fill-rule="nonzero" fill="#1c191c" id="path230"/>
    <path d="m3093.919922,266.238007l0,32.082001c-3.949951,6.149017 -12.449951,11.429993 -21.23999,11.429993c-14.209961,0 -22.699951,-11.718994 -22.699951,-27.39798c0,-15.671997 8.48999,-27.243011 22.699951,-27.243011c8.790039,0 17.290039,4.980988 21.23999,11.128998zm0,-19.179001l0,10.550003c-5.27002,-7.186996 -13.919922,-12.307999 -23.879883,-12.307999c-18.450195,0 -31.490234,14.057999 -31.490234,37.05101c0,22.557983 12.890137,37.207001 31.490234,37.207001c9.529785,0 18.169922,-4.688019 23.879883,-12.450012l0,37.653015l10.98999,0l0,-97.703018l-10.98999,0" fill-rule="nonzero" fill="#1c191c" id="path232"/>
    <path d="m3153.830078,310.480011c-15.090088,0 -22.560059,-12.75 -23.139893,-23.588989l46.429932,0c-0.150146,10.549988 -7.179932,23.588989 -23.290039,23.588989zm-34.709961,-27.980011c0,20.512024 14.639893,37.059021 34.849854,37.059021c21.390137,0 33.98999,-16.700012 33.98999,-37.938019l0,-2.781006l-57.269775,0c0.879883,-13.327972 10.25,-24.460983 25.48999,-24.460983c8.049805,0 16.25,3.229996 21.819824,8.930008l5.27002,-7.180023c-7.030029,-7.026993 -16.550049,-10.827988 -28.119873,-10.827988c-20.949951,0 -36.030029,15.077988 -36.030029,37.19899" fill-rule="nonzero" fill="#1c191c" id="path234"/>
    <path d="m3195.870117,256.44101l5.709961,7.898987c4.679932,-5.417999 13.620117,-10.109985 23.290039,-10.109985c10.840088,0 16.699951,5.128998 16.699951,12.161011c0,17.139984 -43.800049,6.588989 -43.800049,32.807983c0,10.992004 9.52002,20.360016 26.370117,20.360016c12.01001,0 20.5,-4.539001 26.219971,-10.25l-5.129883,-7.618011c-4.25,5.128998 -12.01001,8.937988 -21.090088,8.937988c-9.669922,0 -15.679932,-4.839996 -15.679932,-11.136993c0,-15.52298 43.799805,-5.27298 43.799805,-32.811981c0,-11.871017 -9.519775,-21.379013 -27.829834,-21.379013c-11.570068,0 -21.390137,3.507996 -28.560059,11.139999" fill-rule="nonzero" fill="#1c191c" id="path236"/>
    <path d="m3266.469971,247.059006l0,70.741989l10.98999,0l0,-70.741989l-10.98999,0zm-1.899902,88.171005c0,4.109985 3.359863,7.480988 7.319824,7.480988c4.100098,0 7.469971,-3.371002 7.469971,-7.480988c0,-4.101013 -3.369873,-7.320007 -7.469971,-7.320007c-3.959961,0 -7.319824,3.218994 -7.319824,7.320007" fill-rule="nonzero" fill="#1c191c" id="path238"/>
    <path d="m3346.879883,267.410004l0,30.910004c-3.800049,6.148987 -12.300049,11.429993 -21.090088,11.429993c-14.209961,0 -22.699951,-11.281006 -22.699951,-26.960999c0,-15.519012 8.48999,-26.949005 22.699951,-26.949005c8.790039,0 17.290039,5.421997 21.090088,11.570007zm-51.26001,-38.508011l5.560059,8.200012c5.859863,-7.031998 12.889893,-9.680008 23,-9.680008c11.719971,0 22.699951,5.719009 22.699951,21.238007l0,10.121002c-5.119873,-7.19101 -13.77002,-12.609009 -23.72998,-12.609009c-18.449951,0 -31.48999,13.769012 -31.48999,36.617004c0,22.710999 12.889893,36.77002 31.48999,36.77002c9.530029,0 18.02002,-4.688019 23.72998,-12.450012l0,10.691986l10.98999,0l0,-68.69899c0,-23.442001 -16.409912,-30.75 -33.689941,-30.75c-12.01001,0 -20.219971,2.339005 -28.560059,10.550003" fill-rule="nonzero" fill="#1c191c" id="path240"/>
    <path d="m3423.929932,247.059006l0,46.280991c0,12.449005 -6.300049,16.410004 -15.820068,16.410004c-8.639893,0 -16.849854,-5.281006 -20.949951,-10.988007l0,-51.702988l-10.97998,0l0,70.741989l10.97998,0l0,-10.25c4.97998,5.859009 14.649902,12.007996 25.189941,12.007996c14.800049,0 22.570068,-7.468994 22.570068,-22.847992l0,-49.651993l-10.98999,0" fill-rule="nonzero" fill="#1c191c" id="path242"/>
    <path d="m3483.840088,310.480011c-15.090088,0 -22.560059,-12.75 -23.139893,-23.588989l46.429932,0c-0.150146,10.549988 -7.179932,23.588989 -23.290039,23.588989zm-34.719971,-27.980011c0,20.512024 14.649902,37.059021 34.859863,37.059021c21.390137,0 33.98999,-16.700012 33.98999,-37.938019l0,-2.781006l-57.269775,0c0.869873,-13.327972 10.25,-24.460983 25.47998,-24.460983c8.059814,0 16.26001,3.229996 21.829834,8.930008l5.27002,-7.180023c-7.030029,-7.026993 -16.550049,-10.827988 -28.119873,-10.827988c-20.949951,0 -36.040039,15.077988 -36.040039,37.19899" fill-rule="nonzero" fill="#1c191c" id="path244"/>
    <path d="m3583.300049,266.238007l0,32.082001c-3.959961,6.149017 -12.459961,11.429993 -21.23999,11.429993c-14.209961,0 -22.699951,-11.718994 -22.699951,-27.39798c0,-15.671997 8.48999,-27.243011 22.699951,-27.243011c8.780029,0 17.280029,4.980988 21.23999,11.128998zm0,-19.179001l0,10.550003c-5.280029,-7.186996 -13.919922,-12.307999 -23.879883,-12.307999c-18.460205,0 -31.5,14.057999 -31.5,37.05101c0,22.557983 12.899902,37.207001 31.5,37.207001c9.519775,0 18.169922,-4.688019 23.879883,-12.450012l0,37.653015l10.97998,0l0,-97.703018l-10.97998,0" fill-rule="nonzero" fill="#1c191c" id="path246"/>
    <path d="m3678.790039,255.108994c14.360107,0 22.860107,11.570999 22.860107,27.242996c0,15.678986 -8.5,27.39801 -22.860107,27.39801c-8.629883,0 -17.280029,-5.281006 -21.090088,-11.430023l0,-32.082001c3.810059,-6.14798 12.460205,-11.128983 21.090088,-11.128983zm-32.070068,-8.050003l0,97.703003l10.97998,0l0,-37.652985c5.719971,7.761993 14.210205,12.449982 23.880127,12.449982c18.449951,0 31.48999,-14.648987 31.48999,-37.207001c0,-22.992981 -13.040039,-37.050995 -31.48999,-37.050995c-9.959961,0 -18.600098,5.121002 -23.880127,12.308014l0,-10.550003l-10.97998,0" fill-rule="nonzero" fill="#1c191c" id="path248"/>
    <path d="m3725.080078,229.332001c1.610107,-0.742004 4.25,-1.184006 6.01001,-1.184006c4.830078,0 8.060059,1.622009 10.550049,7.481003l4.679932,10.69101l-29.590088,71.480988l11.870117,0l23.580078,-58l23.429932,58l12.02002,0l-35.449951,-85.10199c-4.25,-10.25 -11.420166,-14.207001 -20.800049,-14.347c-2.340088,0 -6,0.429001 -8.060059,1.027008l1.76001,9.953003" fill-rule="nonzero" fill="#1c191c" id="path250"/>
   </g>
  </g>
  <rect height="41" width="222" y="605.612" x="392.5" stroke-width="1.5" fill="#fdded4" id="svg_1"/>
 </g>
</svg>